<svg width="65" height="65" viewBox="0 0 65 65" fill="none" xmlns="http://www.w3.org/2000/svg">
<rect width="65" height="65" rx="25" fill="#A1A4B2"/>
<g clip-path="url(#clip0_2319_240)">
<path d="M18.1941 49.0004C18.0738 49.0004 17.9537 48.9544 17.8622 48.8629L16.1374 47.1381C15.9604 46.9611 15.9536 46.6765 16.1216 46.491L18.6244 43.7316L16.9347 42.0419C16.4909 41.5981 16.4909 40.8761 16.9347 40.4324L18.3246 39.0424C18.3725 38.9946 18.4235 38.9516 18.4778 38.9135L17.6524 38.088C17.2088 37.6442 17.2088 36.9224 17.6522 36.4787L19.6533 34.4777C19.8685 34.2625 20.1542 34.1443 20.4581 34.1443C20.762 34.1443 21.048 34.2627 21.2629 34.4777L24.5549 37.7696L38.7687 23.5558L35.4768 20.2638C35.2616 20.0489 35.1434 19.7632 35.1434 19.459C35.1434 19.1549 35.2618 18.8692 35.4768 18.6543L37.4777 16.6533C37.6929 16.4381 37.9786 16.3199 38.2825 16.3199C38.5863 16.3199 38.8722 16.4381 39.0871 16.6531L39.9127 17.4789C39.9505 17.4248 39.9934 17.3734 40.0415 17.3253L41.4314 15.9354C41.6466 15.7203 41.9323 15.602 42.2362 15.602C42.5401 15.602 42.8262 15.7205 43.041 15.9356L44.7307 17.6251L47.4901 15.1224C47.6756 14.9544 47.9605 14.9611 48.1372 15.1381L49.862 16.863C50.039 17.04 50.0458 17.3246 49.8778 17.5101L47.375 20.2694L49.0647 21.9592C49.5085 22.403 49.5085 23.125 49.0647 23.5687L47.6748 24.9587C47.627 25.0065 47.5759 25.0495 47.5216 25.0876L48.3471 25.9131C48.7907 26.3568 48.7907 27.0786 48.3473 27.5224L46.3461 29.5234C46.131 29.7385 45.8452 29.8568 45.5413 29.8568C45.2374 29.8568 44.9515 29.7384 44.7365 29.5234L41.4446 26.2314L27.2307 40.4453L30.5227 43.7373C30.7378 43.9522 30.8561 44.2379 30.8561 44.5421C30.8561 44.8462 30.7376 45.1319 30.5227 45.3468L28.5217 47.3478C28.3066 47.5629 28.0208 47.6812 27.7169 47.6812C27.4132 47.6812 27.1273 47.5629 26.9123 47.348L26.0867 46.5222C26.049 46.5763 26.006 46.6277 25.9579 46.6757L24.568 48.0657C24.3529 48.2808 24.0671 48.3991 23.7632 48.3991C23.4593 48.3991 23.1732 48.2806 22.9584 48.0655L21.2687 46.3759L18.5093 48.8787C18.42 48.96 18.307 49.0004 18.1941 49.0004ZM17.1172 46.7903L18.2099 47.883L20.6044 45.7114L19.2888 44.3958L17.1172 46.7903ZM19.1296 39.6473C19.0988 39.6473 19.0395 39.6548 18.9884 39.7057L17.5985 41.0956C17.5208 41.1735 17.5208 41.3 17.5985 41.3777L23.6226 47.4017C23.6735 47.4526 23.7328 47.4603 23.7636 47.4603C23.7944 47.4603 23.8537 47.4526 23.9048 47.4017L25.2947 46.0116C25.3718 45.9342 25.3724 45.8083 25.2958 45.7305L19.2706 39.7053C19.2195 39.6548 19.1604 39.6473 19.1296 39.6473ZM23.9038 43.0117L27.5763 46.6842C27.6272 46.7351 27.6865 46.7426 27.7173 46.7426C27.7483 46.7426 27.8076 46.7349 27.8585 46.684L29.8594 44.683C29.9103 44.6322 29.918 44.5728 29.918 44.5421C29.918 44.5113 29.9103 44.4519 29.8594 44.4011L20.5993 35.1409C20.5484 35.09 20.4891 35.0825 20.4583 35.0825C20.4273 35.0825 20.368 35.0902 20.3171 35.1411L18.3162 37.1421C18.2384 37.2198 18.2384 37.3463 18.3163 37.4242L23.9038 43.0117ZM25.2187 38.4329L26.5675 39.7817L40.7813 25.5678L39.4325 24.219L25.2187 38.4329ZM38.2827 17.2581C38.2517 17.2581 38.1924 17.2658 38.1415 17.3167L36.1406 19.3177C36.0897 19.3686 36.082 19.4279 36.082 19.4587C36.082 19.4894 36.0897 19.5488 36.1406 19.5996L45.4007 28.8598C45.4516 28.9107 45.5109 28.9182 45.5417 28.9182C45.5727 28.9182 45.632 28.9105 45.6829 28.8596L47.6838 26.8586C47.7616 26.7809 47.7616 26.6544 47.6836 26.5765L38.4237 17.3163C38.373 17.2658 38.3135 17.2581 38.2827 17.2581ZM42.7598 20.3252L46.7294 24.2949C46.7803 24.3457 46.8396 24.3534 46.8704 24.3534C46.9012 24.3534 46.9605 24.3457 47.0116 24.2949L48.4015 22.9049C48.4792 22.827 48.4792 22.7005 48.4015 22.6228L42.3774 16.5988C42.3265 16.548 42.2672 16.5403 42.2364 16.5403C42.2056 16.5403 42.1463 16.548 42.0952 16.5988L40.7053 17.989C40.6282 18.0663 40.6276 18.1923 40.7042 18.27L42.7598 20.3252ZM45.3956 18.2893L46.7112 19.6049L48.8828 17.2105L47.7901 16.1177L45.3956 18.2893Z" fill="white"/>
</g>
<defs>
<clipPath id="clip0_2319_240">
<rect width="34" height="34" fill="white" transform="translate(16 15)"/>
</clipPath>
</defs>
</svg>
