<svg width="66" height="66" viewBox="0 0 66 66" fill="none" xmlns="http://www.w3.org/2000/svg">
<g clip-path="url(#clip0_1_67)">
<path d="M32.9 64.8C50.7941 64.8 65.3 50.294 65.3 32.4C65.3 14.506 50.7941 0 32.9 0C15.006 0 0.5 14.506 0.5 32.4C0.5 50.294 15.006 64.8 32.9 64.8Z" fill="white"/>
<mask id="mask0_1_67" style="mask-type:luminance" maskUnits="userSpaceOnUse" x="2" y="1" width="61" height="63">
<path d="M62.2907 26.5349H33.2093V38.593H49.9488C48.3884 46.2535 41.8628 50.6511 33.2093 50.6511C22.9953 50.6511 14.7674 42.4232 14.7674 32.2093C14.7674 21.9953 22.9953 13.7674 33.2093 13.7674C37.607 13.7674 41.579 15.3279 44.7 17.8814L53.7791 8.80232C48.2465 3.97907 41.1535 1 33.2093 1C15.9023 1 2 14.9023 2 32.2093C2 49.5163 15.9023 63.4186 33.2093 63.4186C48.814 63.4186 63 52.0697 63 32.2093C63 30.3651 62.7163 28.3791 62.2907 26.5349Z" fill="white"/>
</mask>
<g mask="url(#mask0_1_67)">
<path d="M-0.837158 50.6509V13.7672L23.2791 32.2091L-0.837158 50.6509Z" fill="#FBBC05"/>
</g>
<mask id="mask1_1_67" style="mask-type:luminance" maskUnits="userSpaceOnUse" x="2" y="1" width="61" height="63">
<path d="M62.2907 26.5349H33.2093V38.593H49.9488C48.3884 46.2535 41.8628 50.6511 33.2093 50.6511C22.9953 50.6511 14.7674 42.4232 14.7674 32.2093C14.7674 21.9953 22.9953 13.7674 33.2093 13.7674C37.607 13.7674 41.579 15.3279 44.7 17.8814L53.7791 8.80232C48.2465 3.97907 41.1535 1 33.2093 1C15.9023 1 2 14.9023 2 32.2093C2 49.5163 15.9023 63.4186 33.2093 63.4186C48.814 63.4186 63 52.0697 63 32.2093C63 30.3651 62.7163 28.3791 62.2907 26.5349Z" fill="white"/>
</mask>
<g mask="url(#mask1_1_67)">
<path d="M-0.837158 13.7675L23.2791 32.2094L33.2094 23.5559L67.2559 18.0233V-1.83716H-0.837158V13.7675Z" fill="#EA4335"/>
</g>
<mask id="mask2_1_67" style="mask-type:luminance" maskUnits="userSpaceOnUse" x="2" y="1" width="61" height="63">
<path d="M62.2907 26.5349H33.2093V38.593H49.9488C48.3884 46.2535 41.8628 50.6511 33.2093 50.6511C22.9953 50.6511 14.7674 42.4232 14.7674 32.2093C14.7674 21.9953 22.9953 13.7674 33.2093 13.7674C37.607 13.7674 41.579 15.3279 44.7 17.8814L53.7791 8.80232C48.2465 3.97907 41.1535 1 33.2093 1C15.9023 1 2 14.9023 2 32.2093C2 49.5163 15.9023 63.4186 33.2093 63.4186C48.814 63.4186 63 52.0697 63 32.2093C63 30.3651 62.7163 28.3791 62.2907 26.5349Z" fill="white"/>
</mask>
<g mask="url(#mask2_1_67)">
<path d="M-0.837158 50.6512L41.721 18.0233L52.928 19.4419L67.2559 -1.83716V66.2559H-0.837158V50.6512Z" fill="#34A853"/>
</g>
<mask id="mask3_1_67" style="mask-type:luminance" maskUnits="userSpaceOnUse" x="2" y="1" width="61" height="63">
<path d="M62.2907 26.5349H33.2093V38.593H49.9488C48.3884 46.2535 41.8628 50.6511 33.2093 50.6511C22.9953 50.6511 14.7674 42.4232 14.7674 32.2093C14.7674 21.9953 22.9953 13.7674 33.2093 13.7674C37.607 13.7674 41.579 15.3279 44.7 17.8814L53.7791 8.80232C48.2465 3.97907 41.1535 1 33.2093 1C15.9023 1 2 14.9023 2 32.2093C2 49.5163 15.9023 63.4186 33.2093 63.4186C48.814 63.4186 63 52.0697 63 32.2093C63 30.3651 62.7163 28.3791 62.2907 26.5349Z" fill="white"/>
</mask>
<g mask="url(#mask3_1_67)">
<path d="M67.2566 66.2556L23.2799 32.2091L17.6055 27.9533L67.2566 13.7672V66.2556Z" fill="#4285F4"/>
</g>
</g>
<defs>
<clipPath id="clip0_1_67">
<rect width="65.7" height="65.8" fill="white"/>
</clipPath>
</defs>
</svg>
