<svg width="65" height="65" viewBox="0 0 65 65" fill="none" xmlns="http://www.w3.org/2000/svg">
<rect width="65" height="65" rx="25" fill="#A1A4B2"/>
<mask id="path-2-outside-1_2319_246" maskUnits="userSpaceOnUse" x="17.8638" y="18.9999" width="29" height="27" fill="black">
<rect fill="white" x="17.8638" y="18.9999" width="29" height="27"/>
<path d="M43.5064 30.8041C42.6129 27.3264 40.1078 24.4354 36.7275 23.0845C36.1436 21.2611 34.4268 19.9999 32.5001 19.9999C30.5241 19.9999 28.8463 21.2981 28.2729 23.0861C26.2371 23.9016 24.4937 25.2771 23.2183 27.0792C22.4125 28.2177 21.8316 29.4763 21.4914 30.8042C20.0243 30.9138 18.8638 32.1416 18.8638 33.6362C18.8638 35.1317 20.0255 36.3602 21.4938 36.4685C22.7555 41.3686 27.2116 44.9999 32.5001 44.9999C37.7884 44.9999 42.2446 41.3686 43.5062 36.4685C44.9745 36.3602 46.1363 35.1317 46.1363 33.6361C46.1363 32.1408 44.9746 30.9125 43.5064 30.8041ZM20.0002 33.6361C20.0002 32.8521 20.5325 32.1901 21.2546 31.9921C21.2058 32.3303 21.1718 32.6717 21.1534 33.0157C21.1531 33.0205 21.1529 33.0252 21.1526 33.03C21.1493 33.0927 21.1464 33.1554 21.1442 33.2182C21.1433 33.242 21.1428 33.2658 21.1421 33.2896C21.1408 33.3346 21.1393 33.3797 21.1385 33.4248C21.1372 33.4952 21.1365 33.5657 21.1365 33.6362C21.1365 33.7222 21.1378 33.8082 21.1399 33.8943C21.1404 33.9212 21.1412 33.9481 21.142 33.9749C21.1438 34.0375 21.1463 34.1001 21.1492 34.1626C21.1503 34.1891 21.1514 34.2157 21.1527 34.2423C21.1569 34.3204 21.1619 34.3984 21.1676 34.4764C21.1703 34.513 21.1735 34.5494 21.1765 34.586C21.1804 34.6322 21.1844 34.6785 21.1889 34.7247C21.1927 34.7654 21.1967 34.8061 21.2011 34.8467C21.2061 34.8942 21.2118 34.9416 21.2174 34.9891C21.2248 35.0512 21.2327 35.1131 21.2411 35.1748C21.2459 35.2102 21.2503 35.2455 21.2554 35.2807C20.5329 35.083 20.0002 34.4206 20.0002 33.6361ZM32.5001 21.1363C33.6254 21.1363 34.6547 21.7143 35.2555 22.6189C35.2442 22.6188 35.2328 22.6187 35.2215 22.6187C35.2141 22.6187 35.207 22.6193 35.1996 22.6193C35.1968 22.6194 35.1939 22.6194 35.1911 22.6195C33.4219 22.636 31.9878 24.0796 31.9878 25.8525C31.9878 26.5424 32.2045 27.1983 32.5939 27.7395C32.5627 27.7404 32.5313 27.7409 32.5001 27.7409C30.6793 27.7409 29.1979 26.2595 29.1979 24.4387C29.1979 22.6177 30.6792 21.1363 32.5001 21.1363ZM42.7235 33.9054C42.7232 33.9192 42.7224 33.933 42.722 33.9468C42.7197 34.023 42.7169 34.0991 42.7129 34.1752C42.7122 34.1888 42.7111 34.2024 42.7103 34.216C42.706 34.292 42.7012 34.3681 42.6953 34.444C42.6941 34.4594 42.6924 34.4746 42.6912 34.4899C42.6851 34.5633 42.6784 34.6367 42.6708 34.7099C42.6687 34.7303 42.6661 34.7506 42.6638 34.771C42.6564 34.8381 42.6486 34.9051 42.6399 34.9721C42.6362 35.0001 42.632 35.0279 42.6281 35.0559C42.6201 35.1138 42.6119 35.1716 42.6028 35.2293C42.5969 35.2668 42.5905 35.3041 42.5841 35.3416C42.5763 35.3883 42.5685 35.4349 42.56 35.4815C42.5513 35.5289 42.5421 35.5759 42.5328 35.623C42.5259 35.6582 42.5189 35.6936 42.5116 35.7288C41.5433 40.3678 37.4222 43.8634 32.5 43.8634C27.5741 43.8634 23.4506 40.3629 22.4862 35.7188C22.4774 35.6767 22.4694 35.6343 22.4612 35.592C22.4534 35.5517 22.4453 35.5113 22.438 35.4707C22.4275 35.4133 22.418 35.3556 22.4085 35.298C22.4042 35.2715 22.3994 35.2451 22.3953 35.2186C22.3841 35.1456 22.3737 35.0725 22.3639 34.9993C22.3623 34.9869 22.3602 34.9745 22.3587 34.9621C22.3475 34.8759 22.3373 34.7894 22.3283 34.7029C22.3283 34.7025 22.3282 34.702 22.3282 34.7016C22.2914 34.3479 22.2728 33.9921 22.2728 33.6363C22.2728 33.5561 22.2741 33.4757 22.276 33.3955C22.2767 33.3691 22.2775 33.3428 22.2784 33.3165C22.28 33.2625 22.2823 33.2085 22.2848 33.1544C22.2863 33.123 22.2876 33.0915 22.2894 33.0602C22.2921 33.0123 22.2955 32.9645 22.2989 32.9167C22.3048 32.8342 22.3115 32.7517 22.3193 32.6696C22.3202 32.6601 22.3209 32.6507 22.3218 32.6413C22.6711 29.105 24.8612 25.9667 28.0619 24.4208C28.0619 24.4268 28.0615 24.4327 28.0615 24.4387C28.0615 24.8455 28.1175 25.2391 28.2205 25.6136C27.2006 26.1566 26.3051 26.8802 25.5544 27.7698C25.352 28.0097 25.3824 28.3682 25.6222 28.5705C25.7289 28.6605 25.859 28.7044 25.9884 28.7044C26.15 28.7044 26.3106 28.6358 26.4229 28.5026C27.057 27.7511 27.8092 27.1353 28.6633 26.6661C29.4331 27.9869 30.8642 28.8773 32.5001 28.8773C33.0017 28.8773 33.4947 28.7939 33.9649 28.6294C34.1697 28.5578 34.3159 28.3758 34.3416 28.1603C34.3672 27.9448 34.2679 27.7335 34.0856 27.6158C33.4836 27.2269 33.1242 26.5678 33.1242 25.8526C33.1242 24.7196 34.0274 23.7942 35.1516 23.757C38.9258 24.7668 41.7327 27.8185 42.5103 31.5379C42.5232 31.5994 42.5357 31.6611 42.5473 31.7229C42.5534 31.7551 42.559 31.7876 42.5649 31.82C42.574 31.8706 42.5829 31.9212 42.5912 31.9719C42.5962 32.0023 42.6009 32.0327 42.6057 32.0632C42.6145 32.1202 42.6229 32.1773 42.6306 32.2345C42.6339 32.2583 42.6374 32.2822 42.6405 32.306C42.6621 32.4721 42.6798 32.6388 42.6933 32.8059C42.6949 32.825 42.6961 32.8443 42.6975 32.8635C42.7024 32.9277 42.7067 32.9921 42.7103 33.0564C42.7117 33.0814 42.713 33.1065 42.7143 33.1315C42.7174 33.1928 42.7197 33.2541 42.7216 33.3154C42.7224 33.3391 42.7232 33.3628 42.7239 33.3864C42.7259 33.4697 42.7272 33.553 42.7272 33.6362C42.7271 33.726 42.7259 33.8157 42.7235 33.9054ZM43.7447 35.2807C43.7509 35.2378 43.7565 35.1946 43.7623 35.1515C43.7684 35.106 43.7742 35.0604 43.7798 35.0147C43.7868 34.9574 43.7935 34.9 43.7996 34.8426C43.8036 34.805 43.8073 34.7673 43.8108 34.7295C43.8156 34.68 43.8199 34.6305 43.824 34.581C43.8269 34.5467 43.8299 34.5125 43.8324 34.4781C43.8383 34.3992 43.8433 34.3203 43.8475 34.2413C43.8489 34.2158 43.8498 34.1903 43.851 34.1648C43.8539 34.1013 43.8563 34.0378 43.8582 33.9742C43.859 33.9477 43.8597 33.9212 43.8604 33.8946C43.8623 33.8085 43.8637 33.7224 43.8637 33.6361C43.8637 33.5612 43.8628 33.4862 43.8613 33.4113C43.8607 33.3841 43.8598 33.3569 43.8591 33.3297C43.8579 33.2827 43.8564 33.2356 43.8547 33.1885C43.8533 33.1551 43.8516 33.1216 43.8501 33.0882C43.8482 33.0478 43.8461 33.0074 43.8437 32.967C43.8416 32.9307 43.8393 32.8945 43.8368 32.8582C43.8343 32.8209 43.8315 32.7838 43.8286 32.7465C43.8256 32.7088 43.8227 32.6709 43.8193 32.6333C43.8161 32.5969 43.8125 32.5606 43.809 32.5242C43.8053 32.4867 43.8018 32.4492 43.7978 32.4118C43.7933 32.3695 43.7881 32.3274 43.7831 32.2852C43.7775 32.2383 43.7718 32.1914 43.7656 32.1447C43.7588 32.0936 43.7522 32.0426 43.7448 31.9917C44.4674 32.1894 44.9999 32.8517 44.9999 33.636C44.9998 34.4207 44.4673 35.083 43.7447 35.2807Z"/>
</mask>
<path d="M43.5064 30.8041C42.6129 27.3264 40.1078 24.4354 36.7275 23.0845C36.1436 21.2611 34.4268 19.9999 32.5001 19.9999C30.5241 19.9999 28.8463 21.2981 28.2729 23.0861C26.2371 23.9016 24.4937 25.2771 23.2183 27.0792C22.4125 28.2177 21.8316 29.4763 21.4914 30.8042C20.0243 30.9138 18.8638 32.1416 18.8638 33.6362C18.8638 35.1317 20.0255 36.3602 21.4938 36.4685C22.7555 41.3686 27.2116 44.9999 32.5001 44.9999C37.7884 44.9999 42.2446 41.3686 43.5062 36.4685C44.9745 36.3602 46.1363 35.1317 46.1363 33.6361C46.1363 32.1408 44.9746 30.9125 43.5064 30.8041ZM20.0002 33.6361C20.0002 32.8521 20.5325 32.1901 21.2546 31.9921C21.2058 32.3303 21.1718 32.6717 21.1534 33.0157C21.1531 33.0205 21.1529 33.0252 21.1526 33.03C21.1493 33.0927 21.1464 33.1554 21.1442 33.2182C21.1433 33.242 21.1428 33.2658 21.1421 33.2896C21.1408 33.3346 21.1393 33.3797 21.1385 33.4248C21.1372 33.4952 21.1365 33.5657 21.1365 33.6362C21.1365 33.7222 21.1378 33.8082 21.1399 33.8943C21.1404 33.9212 21.1412 33.9481 21.142 33.9749C21.1438 34.0375 21.1463 34.1001 21.1492 34.1626C21.1503 34.1891 21.1514 34.2157 21.1527 34.2423C21.1569 34.3204 21.1619 34.3984 21.1676 34.4764C21.1703 34.513 21.1735 34.5494 21.1765 34.586C21.1804 34.6322 21.1844 34.6785 21.1889 34.7247C21.1927 34.7654 21.1967 34.8061 21.2011 34.8467C21.2061 34.8942 21.2118 34.9416 21.2174 34.9891C21.2248 35.0512 21.2327 35.1131 21.2411 35.1748C21.2459 35.2102 21.2503 35.2455 21.2554 35.2807C20.5329 35.083 20.0002 34.4206 20.0002 33.6361ZM32.5001 21.1363C33.6254 21.1363 34.6547 21.7143 35.2555 22.6189C35.2442 22.6188 35.2328 22.6187 35.2215 22.6187C35.2141 22.6187 35.207 22.6193 35.1996 22.6193C35.1968 22.6194 35.1939 22.6194 35.1911 22.6195C33.4219 22.636 31.9878 24.0796 31.9878 25.8525C31.9878 26.5424 32.2045 27.1983 32.5939 27.7395C32.5627 27.7404 32.5313 27.7409 32.5001 27.7409C30.6793 27.7409 29.1979 26.2595 29.1979 24.4387C29.1979 22.6177 30.6792 21.1363 32.5001 21.1363ZM42.7235 33.9054C42.7232 33.9192 42.7224 33.933 42.722 33.9468C42.7197 34.023 42.7169 34.0991 42.7129 34.1752C42.7122 34.1888 42.7111 34.2024 42.7103 34.216C42.706 34.292 42.7012 34.3681 42.6953 34.444C42.6941 34.4594 42.6924 34.4746 42.6912 34.4899C42.6851 34.5633 42.6784 34.6367 42.6708 34.7099C42.6687 34.7303 42.6661 34.7506 42.6638 34.771C42.6564 34.8381 42.6486 34.9051 42.6399 34.9721C42.6362 35.0001 42.632 35.0279 42.6281 35.0559C42.6201 35.1138 42.6119 35.1716 42.6028 35.2293C42.5969 35.2668 42.5905 35.3041 42.5841 35.3416C42.5763 35.3883 42.5685 35.4349 42.56 35.4815C42.5513 35.5289 42.5421 35.5759 42.5328 35.623C42.5259 35.6582 42.5189 35.6936 42.5116 35.7288C41.5433 40.3678 37.4222 43.8634 32.5 43.8634C27.5741 43.8634 23.4506 40.3629 22.4862 35.7188C22.4774 35.6767 22.4694 35.6343 22.4612 35.592C22.4534 35.5517 22.4453 35.5113 22.438 35.4707C22.4275 35.4133 22.418 35.3556 22.4085 35.298C22.4042 35.2715 22.3994 35.2451 22.3953 35.2186C22.3841 35.1456 22.3737 35.0725 22.3639 34.9993C22.3623 34.9869 22.3602 34.9745 22.3587 34.9621C22.3475 34.8759 22.3373 34.7894 22.3283 34.7029C22.3283 34.7025 22.3282 34.702 22.3282 34.7016C22.2914 34.3479 22.2728 33.9921 22.2728 33.6363C22.2728 33.5561 22.2741 33.4757 22.276 33.3955C22.2767 33.3691 22.2775 33.3428 22.2784 33.3165C22.28 33.2625 22.2823 33.2085 22.2848 33.1544C22.2863 33.123 22.2876 33.0915 22.2894 33.0602C22.2921 33.0123 22.2955 32.9645 22.2989 32.9167C22.3048 32.8342 22.3115 32.7517 22.3193 32.6696C22.3202 32.6601 22.3209 32.6507 22.3218 32.6413C22.6711 29.105 24.8612 25.9667 28.0619 24.4208C28.0619 24.4268 28.0615 24.4327 28.0615 24.4387C28.0615 24.8455 28.1175 25.2391 28.2205 25.6136C27.2006 26.1566 26.3051 26.8802 25.5544 27.7698C25.352 28.0097 25.3824 28.3682 25.6222 28.5705C25.7289 28.6605 25.859 28.7044 25.9884 28.7044C26.15 28.7044 26.3106 28.6358 26.4229 28.5026C27.057 27.7511 27.8092 27.1353 28.6633 26.6661C29.4331 27.9869 30.8642 28.8773 32.5001 28.8773C33.0017 28.8773 33.4947 28.7939 33.9649 28.6294C34.1697 28.5578 34.3159 28.3758 34.3416 28.1603C34.3672 27.9448 34.2679 27.7335 34.0856 27.6158C33.4836 27.2269 33.1242 26.5678 33.1242 25.8526C33.1242 24.7196 34.0274 23.7942 35.1516 23.757C38.9258 24.7668 41.7327 27.8185 42.5103 31.5379C42.5232 31.5994 42.5357 31.6611 42.5473 31.7229C42.5534 31.7551 42.559 31.7876 42.5649 31.82C42.574 31.8706 42.5829 31.9212 42.5912 31.9719C42.5962 32.0023 42.6009 32.0327 42.6057 32.0632C42.6145 32.1202 42.6229 32.1773 42.6306 32.2345C42.6339 32.2583 42.6374 32.2822 42.6405 32.306C42.6621 32.4721 42.6798 32.6388 42.6933 32.8059C42.6949 32.825 42.6961 32.8443 42.6975 32.8635C42.7024 32.9277 42.7067 32.9921 42.7103 33.0564C42.7117 33.0814 42.713 33.1065 42.7143 33.1315C42.7174 33.1928 42.7197 33.2541 42.7216 33.3154C42.7224 33.3391 42.7232 33.3628 42.7239 33.3864C42.7259 33.4697 42.7272 33.553 42.7272 33.6362C42.7271 33.726 42.7259 33.8157 42.7235 33.9054ZM43.7447 35.2807C43.7509 35.2378 43.7565 35.1946 43.7623 35.1515C43.7684 35.106 43.7742 35.0604 43.7798 35.0147C43.7868 34.9574 43.7935 34.9 43.7996 34.8426C43.8036 34.805 43.8073 34.7673 43.8108 34.7295C43.8156 34.68 43.8199 34.6305 43.824 34.581C43.8269 34.5467 43.8299 34.5125 43.8324 34.4781C43.8383 34.3992 43.8433 34.3203 43.8475 34.2413C43.8489 34.2158 43.8498 34.1903 43.851 34.1648C43.8539 34.1013 43.8563 34.0378 43.8582 33.9742C43.859 33.9477 43.8597 33.9212 43.8604 33.8946C43.8623 33.8085 43.8637 33.7224 43.8637 33.6361C43.8637 33.5612 43.8628 33.4862 43.8613 33.4113C43.8607 33.3841 43.8598 33.3569 43.8591 33.3297C43.8579 33.2827 43.8564 33.2356 43.8547 33.1885C43.8533 33.1551 43.8516 33.1216 43.8501 33.0882C43.8482 33.0478 43.8461 33.0074 43.8437 32.967C43.8416 32.9307 43.8393 32.8945 43.8368 32.8582C43.8343 32.8209 43.8315 32.7838 43.8286 32.7465C43.8256 32.7088 43.8227 32.6709 43.8193 32.6333C43.8161 32.5969 43.8125 32.5606 43.809 32.5242C43.8053 32.4867 43.8018 32.4492 43.7978 32.4118C43.7933 32.3695 43.7881 32.3274 43.7831 32.2852C43.7775 32.2383 43.7718 32.1914 43.7656 32.1447C43.7588 32.0936 43.7522 32.0426 43.7448 31.9917C44.4674 32.1894 44.9999 32.8517 44.9999 33.636C44.9998 34.4207 44.4673 35.083 43.7447 35.2807Z" fill="#FEFCF8"/>
<path d="M43.5064 30.8041C42.6129 27.3264 40.1078 24.4354 36.7275 23.0845C36.1436 21.2611 34.4268 19.9999 32.5001 19.9999C30.5241 19.9999 28.8463 21.2981 28.2729 23.0861C26.2371 23.9016 24.4937 25.2771 23.2183 27.0792C22.4125 28.2177 21.8316 29.4763 21.4914 30.8042C20.0243 30.9138 18.8638 32.1416 18.8638 33.6362C18.8638 35.1317 20.0255 36.3602 21.4938 36.4685C22.7555 41.3686 27.2116 44.9999 32.5001 44.9999C37.7884 44.9999 42.2446 41.3686 43.5062 36.4685C44.9745 36.3602 46.1363 35.1317 46.1363 33.6361C46.1363 32.1408 44.9746 30.9125 43.5064 30.8041ZM20.0002 33.6361C20.0002 32.8521 20.5325 32.1901 21.2546 31.9921C21.2058 32.3303 21.1718 32.6717 21.1534 33.0157C21.1531 33.0205 21.1529 33.0252 21.1526 33.03C21.1493 33.0927 21.1464 33.1554 21.1442 33.2182C21.1433 33.242 21.1428 33.2658 21.1421 33.2896C21.1408 33.3346 21.1393 33.3797 21.1385 33.4248C21.1372 33.4952 21.1365 33.5657 21.1365 33.6362C21.1365 33.7222 21.1378 33.8082 21.1399 33.8943C21.1404 33.9212 21.1412 33.9481 21.142 33.9749C21.1438 34.0375 21.1463 34.1001 21.1492 34.1626C21.1503 34.1891 21.1514 34.2157 21.1527 34.2423C21.1569 34.3204 21.1619 34.3984 21.1676 34.4764C21.1703 34.513 21.1735 34.5494 21.1765 34.586C21.1804 34.6322 21.1844 34.6785 21.1889 34.7247C21.1927 34.7654 21.1967 34.8061 21.2011 34.8467C21.2061 34.8942 21.2118 34.9416 21.2174 34.9891C21.2248 35.0512 21.2327 35.1131 21.2411 35.1748C21.2459 35.2102 21.2503 35.2455 21.2554 35.2807C20.5329 35.083 20.0002 34.4206 20.0002 33.6361ZM32.5001 21.1363C33.6254 21.1363 34.6547 21.7143 35.2555 22.6189C35.2442 22.6188 35.2328 22.6187 35.2215 22.6187C35.2141 22.6187 35.207 22.6193 35.1996 22.6193C35.1968 22.6194 35.1939 22.6194 35.1911 22.6195C33.4219 22.636 31.9878 24.0796 31.9878 25.8525C31.9878 26.5424 32.2045 27.1983 32.5939 27.7395C32.5627 27.7404 32.5313 27.7409 32.5001 27.7409C30.6793 27.7409 29.1979 26.2595 29.1979 24.4387C29.1979 22.6177 30.6792 21.1363 32.5001 21.1363ZM42.7235 33.9054C42.7232 33.9192 42.7224 33.933 42.722 33.9468C42.7197 34.023 42.7169 34.0991 42.7129 34.1752C42.7122 34.1888 42.7111 34.2024 42.7103 34.216C42.706 34.292 42.7012 34.3681 42.6953 34.444C42.6941 34.4594 42.6924 34.4746 42.6912 34.4899C42.6851 34.5633 42.6784 34.6367 42.6708 34.7099C42.6687 34.7303 42.6661 34.7506 42.6638 34.771C42.6564 34.8381 42.6486 34.9051 42.6399 34.9721C42.6362 35.0001 42.632 35.0279 42.6281 35.0559C42.6201 35.1138 42.6119 35.1716 42.6028 35.2293C42.5969 35.2668 42.5905 35.3041 42.5841 35.3416C42.5763 35.3883 42.5685 35.4349 42.56 35.4815C42.5513 35.5289 42.5421 35.5759 42.5328 35.623C42.5259 35.6582 42.5189 35.6936 42.5116 35.7288C41.5433 40.3678 37.4222 43.8634 32.5 43.8634C27.5741 43.8634 23.4506 40.3629 22.4862 35.7188C22.4774 35.6767 22.4694 35.6343 22.4612 35.592C22.4534 35.5517 22.4453 35.5113 22.438 35.4707C22.4275 35.4133 22.418 35.3556 22.4085 35.298C22.4042 35.2715 22.3994 35.2451 22.3953 35.2186C22.3841 35.1456 22.3737 35.0725 22.3639 34.9993C22.3623 34.9869 22.3602 34.9745 22.3587 34.9621C22.3475 34.8759 22.3373 34.7894 22.3283 34.7029C22.3283 34.7025 22.3282 34.702 22.3282 34.7016C22.2914 34.3479 22.2728 33.9921 22.2728 33.6363C22.2728 33.5561 22.2741 33.4757 22.276 33.3955C22.2767 33.3691 22.2775 33.3428 22.2784 33.3165C22.28 33.2625 22.2823 33.2085 22.2848 33.1544C22.2863 33.123 22.2876 33.0915 22.2894 33.0602C22.2921 33.0123 22.2955 32.9645 22.2989 32.9167C22.3048 32.8342 22.3115 32.7517 22.3193 32.6696C22.3202 32.6601 22.3209 32.6507 22.3218 32.6413C22.6711 29.105 24.8612 25.9667 28.0619 24.4208C28.0619 24.4268 28.0615 24.4327 28.0615 24.4387C28.0615 24.8455 28.1175 25.2391 28.2205 25.6136C27.2006 26.1566 26.3051 26.8802 25.5544 27.7698C25.352 28.0097 25.3824 28.3682 25.6222 28.5705C25.7289 28.6605 25.859 28.7044 25.9884 28.7044C26.15 28.7044 26.3106 28.6358 26.4229 28.5026C27.057 27.7511 27.8092 27.1353 28.6633 26.6661C29.4331 27.9869 30.8642 28.8773 32.5001 28.8773C33.0017 28.8773 33.4947 28.7939 33.9649 28.6294C34.1697 28.5578 34.3159 28.3758 34.3416 28.1603C34.3672 27.9448 34.2679 27.7335 34.0856 27.6158C33.4836 27.2269 33.1242 26.5678 33.1242 25.8526C33.1242 24.7196 34.0274 23.7942 35.1516 23.757C38.9258 24.7668 41.7327 27.8185 42.5103 31.5379C42.5232 31.5994 42.5357 31.6611 42.5473 31.7229C42.5534 31.7551 42.559 31.7876 42.5649 31.82C42.574 31.8706 42.5829 31.9212 42.5912 31.9719C42.5962 32.0023 42.6009 32.0327 42.6057 32.0632C42.6145 32.1202 42.6229 32.1773 42.6306 32.2345C42.6339 32.2583 42.6374 32.2822 42.6405 32.306C42.6621 32.4721 42.6798 32.6388 42.6933 32.8059C42.6949 32.825 42.6961 32.8443 42.6975 32.8635C42.7024 32.9277 42.7067 32.9921 42.7103 33.0564C42.7117 33.0814 42.713 33.1065 42.7143 33.1315C42.7174 33.1928 42.7197 33.2541 42.7216 33.3154C42.7224 33.3391 42.7232 33.3628 42.7239 33.3864C42.7259 33.4697 42.7272 33.553 42.7272 33.6362C42.7271 33.726 42.7259 33.8157 42.7235 33.9054ZM43.7447 35.2807C43.7509 35.2378 43.7565 35.1946 43.7623 35.1515C43.7684 35.106 43.7742 35.0604 43.7798 35.0147C43.7868 34.9574 43.7935 34.9 43.7996 34.8426C43.8036 34.805 43.8073 34.7673 43.8108 34.7295C43.8156 34.68 43.8199 34.6305 43.824 34.581C43.8269 34.5467 43.8299 34.5125 43.8324 34.4781C43.8383 34.3992 43.8433 34.3203 43.8475 34.2413C43.8489 34.2158 43.8498 34.1903 43.851 34.1648C43.8539 34.1013 43.8563 34.0378 43.8582 33.9742C43.859 33.9477 43.8597 33.9212 43.8604 33.8946C43.8623 33.8085 43.8637 33.7224 43.8637 33.6361C43.8637 33.5612 43.8628 33.4862 43.8613 33.4113C43.8607 33.3841 43.8598 33.3569 43.8591 33.3297C43.8579 33.2827 43.8564 33.2356 43.8547 33.1885C43.8533 33.1551 43.8516 33.1216 43.8501 33.0882C43.8482 33.0478 43.8461 33.0074 43.8437 32.967C43.8416 32.9307 43.8393 32.8945 43.8368 32.8582C43.8343 32.8209 43.8315 32.7838 43.8286 32.7465C43.8256 32.7088 43.8227 32.6709 43.8193 32.6333C43.8161 32.5969 43.8125 32.5606 43.809 32.5242C43.8053 32.4867 43.8018 32.4492 43.7978 32.4118C43.7933 32.3695 43.7881 32.3274 43.7831 32.2852C43.7775 32.2383 43.7718 32.1914 43.7656 32.1447C43.7588 32.0936 43.7522 32.0426 43.7448 31.9917C44.4674 32.1894 44.9999 32.8517 44.9999 33.636C44.9998 34.4207 44.4673 35.083 43.7447 35.2807Z" stroke="#FEFCF8" stroke-width="0.4" mask="url(#path-2-outside-1_2319_246)"/>
<path d="M26.0401 34.2809L26.0401 34.2809C26.3118 33.2672 27.2344 32.5593 28.2837 32.5593C29.3332 32.5593 30.2556 33.2672 30.5273 34.2809C30.6156 34.6107 30.42 34.9497 30.0901 35.038M26.0401 34.2809L27.2344 34.6009M26.0401 34.2809C25.9517 34.6107 26.1475 34.9497 26.4772 35.038L26.4772 35.038M26.0401 34.2809L26.4772 35.038M30.0901 35.038L30.0773 34.9902L30.0901 35.038C30.0901 35.038 30.0901 35.038 30.0901 35.038ZM30.0901 35.038C30.0365 35.0524 29.9826 35.0592 29.9297 35.0592C29.6568 35.0592 29.4069 34.8772 29.3329 34.6009C29.2059 34.1268 28.7743 33.7956 28.2836 33.7956C27.793 33.7956 27.3615 34.1268 27.2344 34.6009M27.2344 34.6009C27.146 34.9307 26.8071 35.1263 26.4772 35.038M27.2344 34.6009L26.4772 35.038" fill="#FEFCF8" stroke="#FEFCF8" stroke-width="0.1"/>
<path d="M34.473 34.2809L34.473 34.2809C34.7446 33.2672 35.6672 32.5593 36.7166 32.5593C37.766 32.5593 38.6885 33.2672 38.9601 34.2809C39.0485 34.6106 38.8528 34.9497 38.523 35.038C38.523 35.038 38.523 35.038 38.523 35.038L34.473 34.2809ZM34.473 34.2809C34.3847 34.6107 34.5804 34.9497 34.9102 35.038M34.473 34.2809L34.9102 35.038M34.9102 35.038C35.2399 35.1265 35.579 34.9306 35.6673 34.6009L34.9102 35.038Z" fill="#FEFCF8" stroke="#FEFCF8" stroke-width="0.1"/>
<path d="M34.3067 38.2322L34.3067 38.2322L33.5978 38.6823L33.5495 38.6693C33.5495 38.6693 33.5495 38.6693 33.5495 38.6693C33.4224 39.1435 32.9909 39.4746 32.5003 39.4746C32.0095 39.4746 31.578 39.1435 31.451 38.6693L31.451 38.6693C31.3626 38.3395 31.0236 38.1438 30.6938 38.2322C30.364 38.3206 30.1684 38.6596 30.2567 38.9894C30.5284 40.0031 31.4509 40.711 32.5003 40.711C33.5497 40.711 34.4722 40.0031 34.7439 38.9894L34.7439 38.9893C34.8321 38.6596 34.6364 38.3206 34.3067 38.2322Z" fill="#FEFCF8" stroke="#FEFCF8" stroke-width="0.1"/>
</svg>
