<svg width="169" height="231" viewBox="0 0 169 231" fill="none" xmlns="http://www.w3.org/2000/svg">
<path opacity="0.4" d="M60.5174 22.576C52.6875 89.3032 93.8502 152.663 158.017 172.646C165.118 174.858 169.357 182.12 167.81 189.394L161.505 219.072C159.754 227.302 151.362 232.263 143.285 229.887C122.695 223.828 103.401 214.566 85.7634 202.251C64.6327 187.498 46.773 169.023 32.679 147.331C18.5849 125.639 8.96243 101.814 4.07553 76.5192C-0.00272173 55.4016 -0.62685 34.0188 2.21076 12.7498C3.32443 4.40975 11.2726 -1.23885 19.5067 0.508662L49.1943 6.8177C56.471 8.36574 61.3861 15.1938 60.5174 22.576Z" fill="#FEFCF8"/>
</svg>
