<svg width="120" height="236" viewBox="0 0 120 236" fill="none" xmlns="http://www.w3.org/2000/svg">
<path opacity="0.2" d="M58.335 211.944C68.6431 145.555 29.8674 80.7073 -33.5116 58.3488C-40.5246 55.8743 -44.4911 48.4601 -42.6742 41.2485L-35.2684 11.8261C-33.2125 3.66686 -24.6416 -0.978731 -16.6589 1.69588C3.69095 8.51748 22.6274 18.4917 39.7943 31.4539C60.3612 46.9832 77.5209 66.1107 90.7977 88.3121C104.075 110.514 112.804 134.68 116.746 160.139C120.035 181.394 119.863 202.785 116.235 223.934C114.812 232.227 106.659 237.576 98.4959 235.523L69.0637 228.113C61.8496 226.295 57.1921 219.289 58.335 211.944Z" fill="#FEFCF8"/>
</svg>
