<svg width="117" height="231" viewBox="0 0 117 231" fill="none" xmlns="http://www.w3.org/2000/svg">
<path opacity="0.2" d="M60.4264 22.7718C52.5965 89.499 93.7591 152.858 157.926 172.842C165.027 175.054 169.266 182.315 167.719 189.59L161.414 219.267C159.663 227.497 151.271 232.459 143.194 230.083C122.604 224.024 103.31 214.761 85.6724 202.447C64.5416 187.694 46.6819 169.219 32.5879 147.527C18.4939 125.835 8.87136 102.01 3.98446 76.715C-0.0937862 55.5974 -0.717914 34.2146 2.1197 12.9456C3.23336 4.60556 11.1815 -1.04305 19.4156 0.704462L49.1032 7.0135C56.38 8.56154 61.295 15.3896 60.4264 22.7718Z" fill="#FEFCF8"/>
</svg>
