<svg width="273" height="482" viewBox="0 0 273 482" fill="none" xmlns="http://www.w3.org/2000/svg">
<path opacity="0.6" d="M188.24 104.95C186.51 98.72 181.72 74.89 177.92 45.58C174.8 21.42 193.56 0 217.91 0H231.81C254.15 0 272.24 18.16 272.14 40.5C271.64 154.18 268.38 327.09 257.95 341.74C249.23 353.98 239.6 379.01 233.06 398.44C225.28 421.53 211.68 442.29 193.3 458.28C192.75 458.76 192.2 459.23 191.66 459.68C180.02 469.48 165.9 475.9 150.91 478.5C30.8498 499.3 0.249838 414.36 0.149838 366.13C0.149838 365.27 0.119838 364.41 0.0698377 363.55C-1.34016 335.93 18.0598 276.12 107.69 247.52C198.75 218.48 199.34 140.37 188.24 104.95Z" fill="#FEFCF8"/>
</svg>
