<svg width="273" height="482" viewBox="0 0 273 482" fill="none" xmlns="http://www.w3.org/2000/svg">
<path opacity="0.7" d="M83.9004 376.77C85.6304 383 90.4204 406.83 94.2204 436.14C97.3404 460.3 78.5804 481.72 54.2304 481.72L40.3304 481.72C17.9904 481.72 -0.0996078 463.56 0.000400269 441.22C0.50041 327.54 3.76044 154.63 14.1904 139.98C22.9104 127.74 32.5405 102.71 39.0805 83.2798C46.8605 60.1898 60.4605 39.4298 78.8405 23.4398C79.3905 22.9598 79.9405 22.4899 80.4805 22.0398C92.1205 12.2399 106.24 5.81984 121.23 3.21984C241.29 -17.5801 271.89 67.3598 271.99 115.59C271.99 116.45 272.02 117.31 272.07 118.17C273.48 145.79 254.08 205.6 164.45 234.2C73.3904 263.24 72.8004 341.35 83.9004 376.77Z" fill="#FEFCF8"/>
</svg>
