<svg width="163" height="236" viewBox="0 0 163 236" fill="none" xmlns="http://www.w3.org/2000/svg">
<path opacity="0.5" d="M101.742 211.72C112.05 145.331 73.2741 80.4833 9.89517 58.1248C2.88209 55.6503 -1.08432 48.2361 0.732548 41.0245L8.13836 11.6021C10.1942 3.44286 18.7652 -1.20273 26.7478 1.47188C47.0977 8.29348 66.0341 18.2677 83.201 31.2299C103.768 46.7592 120.928 65.8867 134.204 88.0881C147.481 110.29 156.21 134.456 160.152 159.915C163.442 181.17 163.27 202.561 159.642 223.71C158.219 232.003 150.066 237.352 141.903 235.299L112.47 227.889C105.256 226.071 100.599 219.065 101.742 211.72Z" fill="#FEFCF8"/>
</svg>
