<svg width="16" height="16" viewBox="0 0 16 16" fill="none" xmlns="http://www.w3.org/2000/svg">
<path d="M15.2124 14.2017L11.4044 10.3422C12.3835 9.20799 12.92 7.78089 12.92 6.29522C12.92 2.82409 10.022 0 6.45999 0C2.89801 0 0 2.82409 0 6.29522C0 9.76635 2.89801 12.5904 6.45999 12.5904C7.79721 12.5904 9.07151 12.1974 10.161 11.4513L13.998 15.3401C14.1583 15.5024 14.374 15.5919 14.6052 15.5919C14.824 15.5919 15.0316 15.5106 15.1891 15.3628C15.5239 15.0489 15.5346 14.5283 15.2124 14.2017ZM6.45999 1.64223C9.09286 1.64223 11.2348 3.72951 11.2348 6.29522C11.2348 8.86093 9.09286 10.9482 6.45999 10.9482C3.82712 10.9482 1.68521 8.86093 1.68521 6.29522C1.68521 3.72951 3.82712 1.64223 6.45999 1.64223Z" fill="#A1A4B2"/>
</svg>
